<svg width="64" height="64" viewBox="0 0 64 64" fill="none" xmlns="http://www.w3.org/2000/svg">
  <path d="M32 6C43.2 15.5 47.9 25.3 45.9 35.3C43.8 45.8 34.6 52.5 20 55C17 40.7 18.8 29.4 25.3 21.1C27.4 18.5 29.6 16.4 32 6Z" fill="#FFD5E9"/>
  <path d="M32 6C43.2 15.5 47.9 25.3 45.9 35.3C43.8 45.8 34.6 52.5 20 55C17 40.7 18.8 29.4 25.3 21.1C27.4 18.5 29.6 16.4 32 6Z" stroke="#E86EA8" stroke-width="3" stroke-linejoin="round"/>
  <path d="M42.2 18.6C49.7 18.8 55.2 22.4 58 29.4C50.8 31.6 45.2 30.9 41.1 27.5" stroke="#8FD6E8" stroke-width="3" stroke-linecap="round"/>
  <path d="M26.4 39.6C31.8 34.7 36.3 28.1 39.7 19.9" stroke="#FFFFFF" stroke-width="3" stroke-linecap="round"/>
  <path d="M15.8 28.1C9.6 28.6 5.8 32.1 4.5 38.6C10.6 40 15.9 38.6 20.4 34.5" stroke="#D9B76F" stroke-width="3" stroke-linecap="round"/>
  <path d="M49 9L52 14L57 17L52 20L49 25L46 20L41 17L46 14L49 9Z" fill="#FFFFFF" stroke="#E86EA8" stroke-width="2" stroke-linejoin="round"/>
  <path d="M14 10L16 13.5L19.5 15.5L16 17.5L14 21L12 17.5L8.5 15.5L12 13.5L14 10Z" fill="#FFF8C9" stroke="#D9B76F" stroke-width="1.8" stroke-linejoin="round"/>
</svg>
